<svg xmlns="http://www.w3.org/2000/svg" viewBox="0 0 3199.38 1998.75"><defs><style>.cls-1{fill:#000010;}.cls-2{fill:#fff;}.cls-3{fill:#fc7318;}.cls-4{fill:#192760;}.cls-5{fill:#ffd500;}.cls-6{fill:#fdc500;}.cls-7{fill:#00296b;}.cls-8{fill:#040a2e;}.cls-9{fill:#e6e7e8;}.cls-10{fill:#dfe2ec;}.cls-11{fill:#fedc66;}.cls-12{fill:#231f20;}.cls-13{fill:#001f50;}.cls-14{fill:#00509d;}.cls-15{fill:#003f88;}.cls-16{fill:#e3abc6;}.cls-17{fill:#61acf5;}.cls-18{fill:#fd8f46;}</style></defs><title>mainprimary</title><g id="Background"><rect class="cls-1" width="3199.38" height="1998.75"/></g><g id="Graphics"><path class="cls-2" d="M2494.75,718.85a6.28,6.28,0,1,1-6.28-6.28A6.28,6.28,0,0,1,2494.75,718.85Z" transform="translate(-0.52 -1.96)"/><circle class="cls-3" cx="2577.9" cy="757.26" r="7.24"/><circle class="cls-2" cx="2574.29" cy="602.26" r="10.27"/><path class="cls-4" d="M2127.54,836.74h-661a46.76,46.76,0,0,1-46.15-54.29l141.85-378.94c13.28-34,28.46-48.07,56.55-48.07h661a46.76,46.76,0,0,1,46.15,54.29L2184.1,788.67C2171.73,815.92,2155.63,836.74,2127.54,836.74Z" transform="translate(-0.52 -1.96)"/><path class="cls-5" d="M1462,794.1a6.36,6.36,0,0,1-6.28-7.38l141.84-378.94c3-7.67,8.36-14.19,16.69-14.19h648.28a17.53,17.53,0,0,1,17.3,20.38L2139.74,779.92a16.84,16.84,0,0,1-16.69,14.18Z" transform="translate(-0.52 -1.96)"/><path class="cls-6" d="M2262.55,393.59H1614.27c-8.33,0-13.78,5.85-16.69,14.19l-5.41,15.31h684.34l3.34-9.12A17.53,17.53,0,0,0,2262.55,393.59Z" transform="translate(-0.52 -1.96)"/><path class="cls-2" d="M2190.64,745H1443.71a53,53,0,0,1-16.79-2.72l-6.56,40.16a46.76,46.76,0,0,0,46.15,54.29h661c28.09,0,44.19-20.82,56.56-48.07l7.12-43.67Z" transform="translate(-0.52 -1.96)"/><path class="cls-7" d="M2279.79,355.44h-9A46.76,46.76,0,0,1,2317,409.73L2175.12,788.67c-10.42,24.76-28.47,48.07-56.56,48.07h9c28.09,0,45.62-22.62,56.56-48.07l141.84-378.94A46.76,46.76,0,0,0,2279.79,355.44Z" transform="translate(-0.52 -1.96)"/><polygon class="cls-2" points="1924.47 913.16 1777.14 913.16 1754.67 834.78 1902 834.78 1924.47 913.16"/><polygon class="cls-8" points="1911.04 865.19 1756.49 841.15 1754.67 834.78 1902 834.78 1911.04 865.19"/><path class="cls-9" d="M1926.86,836.74h-24.34L1925,915.12H1722.45a12.12,12.12,0,0,0-12.12,12.12h0a12.12,12.12,0,0,0,12.12,12.11h235.11Z" transform="translate(-0.52 -1.96)"/><path class="cls-10" d="M2190.37,746l-15.25,42.64c-10.42,24.76-28.47,48.07-56.56,48.07h9c28.09,0,45.62-22.62,56.56-48.07L2198.57,750Z" transform="translate(-0.52 -1.96)"/><polygon class="cls-8" points="2197.86 748.47 2190.24 745.54 1762.66 745.55 1762.66 740.55 2191.16 740.54 2199.66 743.8 2197.86 748.47"/><path class="cls-6" d="M1651.29,718.85h-24.71a6.72,6.72,0,0,1-6.28-9.13l9.85-25.66a6.71,6.71,0,0,1,6.27-4.32h24.71a6.72,6.72,0,0,1,6.27,9.13l-9.84,25.67A6.73,6.73,0,0,1,1651.29,718.85Z" transform="translate(-0.52 -1.96)"/><path class="cls-6" d="M1717.77,718.85h-24.71a6.73,6.73,0,0,1-6.28-9.13l9.85-25.66a6.71,6.71,0,0,1,6.27-4.32h24.71a6.73,6.73,0,0,1,6.28,9.13L1724,714.54A6.73,6.73,0,0,1,1717.77,718.85Z" transform="translate(-0.52 -1.96)"/><path class="cls-6" d="M1784.25,718.85h-24.71a6.73,6.73,0,0,1-6.28-9.13l9.85-25.66a6.72,6.72,0,0,1,6.27-4.32h24.71a6.73,6.73,0,0,1,6.28,9.13l-9.85,25.67A6.72,6.72,0,0,1,1784.25,718.85Z" transform="translate(-0.52 -1.96)"/><path class="cls-6" d="M1850.73,718.85H1826a6.72,6.72,0,0,1-6.27-9.13l9.84-25.66a6.72,6.72,0,0,1,6.27-4.32h24.71a6.72,6.72,0,0,1,6.28,9.13L1857,714.54A6.72,6.72,0,0,1,1850.73,718.85Z" transform="translate(-0.52 -1.96)"/><path class="cls-6" d="M1917.21,718.85H1892.5a6.72,6.72,0,0,1-6.27-9.13l9.84-25.66a6.73,6.73,0,0,1,6.28-4.32h24.71a6.72,6.72,0,0,1,6.27,9.13l-9.84,25.67A6.74,6.74,0,0,1,1917.21,718.85Z" transform="translate(-0.52 -1.96)"/><path class="cls-6" d="M1983.69,718.85H1959a6.72,6.72,0,0,1-6.27-9.13l9.84-25.66a6.74,6.74,0,0,1,6.28-4.32h24.71a6.72,6.72,0,0,1,6.27,9.13L1990,714.54A6.73,6.73,0,0,1,1983.69,718.85Z" transform="translate(-0.52 -1.96)"/><polygon class="cls-6" points="1896.93 649.67 1531.35 649.67 1608.2 444.1 1973.77 444.1 1896.93 649.67"/><polygon class="cls-6" points="2162.93 649.67 1930.35 649.67 2007.2 444.1 2239.77 444.1 2162.93 649.67"/><polygon class="cls-11" points="1597.14 473.69 1962.71 473.69 1973.77 444.1 1608.2 444.1 1597.14 473.69"/><polygon class="cls-2" points="1639.41 495.68 1736.34 495.68 1738.97 488.65 1642.04 488.65 1639.41 495.68"/><polygon class="cls-3" points="1660.99 518.41 1697.91 518.41 1700.54 511.37 1663.62 511.37 1660.99 518.41"/><polygon class="cls-2" points="1710.99 518.41 1777.91 518.41 1780.54 511.37 1713.62 511.37 1710.99 518.41"/><polygon class="cls-2" points="1602.56 541.13 1669.48 541.13 1672.12 534.09 1605.19 534.09 1602.56 541.13"/><polygon class="cls-2" points="1678.56 541.13 1835.48 541.13 1838.12 534.09 1681.19 534.09 1678.56 541.13"/><polygon class="cls-2" points="1848.56 541.13 1905.48 541.13 1908.12 534.09 1851.19 534.09 1848.56 541.13"/><polygon class="cls-2" points="1634.14 563.85 1721.06 563.85 1723.69 556.82 1636.77 556.82 1634.14 563.85"/><polygon class="cls-3" points="1734.14 563.85 1761.06 563.85 1763.69 556.82 1736.77 556.82 1734.14 563.85"/><polygon class="cls-3" points="1585.71 586.58 1672.63 586.58 1675.27 579.54 1588.34 579.54 1585.71 586.58"/><polygon class="cls-2" points="1685.71 586.58 1802.63 586.58 1805.27 579.54 1688.34 579.54 1685.71 586.58"/><polygon class="cls-3" points="1815.71 586.58 1842.63 586.58 1845.27 579.54 1818.34 579.54 1815.71 586.58"/><polygon class="cls-2" points="1617.29 609.3 1674.21 609.3 1676.84 602.26 1619.92 602.26 1617.29 609.3"/><polygon class="cls-2" points="1687.29 609.3 1744.21 609.3 1746.84 602.26 1689.92 602.26 1687.29 609.3"/><polygon class="cls-2" points="1568.86 632.02 1655.78 632.02 1658.41 624.99 1571.49 624.99 1568.86 632.02"/><polygon class="cls-2" points="2039.41 495.68 2066.34 495.68 2068.97 488.65 2042.04 488.65 2039.41 495.68"/><polygon class="cls-3" points="2074.41 495.68 2101.34 495.68 2103.97 488.65 2077.04 488.65 2074.41 495.68"/><polygon class="cls-2" points="2050.99 518.41 2137.91 518.41 2140.54 511.37 2053.62 511.37 2050.99 518.41"/><polygon class="cls-2" points="2150.99 518.41 2187.91 518.41 2190.54 511.37 2153.62 511.37 2150.99 518.41"/><polygon class="cls-3" points="2002.56 541.13 2049.49 541.13 2052.12 534.09 2005.19 534.09 2002.56 541.13"/><polygon class="cls-2" points="2058.56 541.13 2105.49 541.13 2108.12 534.09 2061.19 534.09 2058.56 541.13"/><polygon class="cls-2" points="2014.14 563.85 2101.06 563.85 2103.69 556.82 2016.77 556.82 2014.14 563.85"/><polygon class="cls-3" points="2109.14 563.85 2126.06 563.85 2128.69 556.82 2111.77 556.82 2109.14 563.85"/><polygon class="cls-2" points="2135.77 556.82 2133.14 563.85 2150.06 563.85 2152.69 556.82 2135.77 556.82"/><polygon class="cls-3" points="1985.71 586.58 2042.63 586.58 2045.27 579.54 1988.34 579.54 1985.71 586.58"/><polygon class="cls-2" points="2049.71 586.58 2076.63 586.58 2079.26 579.54 2052.34 579.54 2049.71 586.58"/><polygon class="cls-2" points="2017.29 609.3 2154.21 609.3 2156.84 602.26 2019.92 602.26 2017.29 609.3"/><polygon class="cls-2" points="1968.86 632.02 2055.78 632.02 2058.41 624.99 1971.49 624.99 1968.86 632.02"/><polygon class="cls-11" points="1996.14 473.69 2228.71 473.69 2239.77 444.1 2007.2 444.1 1996.14 473.69"/><path class="cls-2" d="M1633.05,460.86a8,8,0,0,1-7.24,5.65c-3.12,0-4.94-2.53-4.06-5.65a8,8,0,0,1,7.24-5.65C1632.11,455.21,1633.93,457.74,1633.05,460.86Z" transform="translate(-0.52 -1.96)"/><path class="cls-2" d="M1659.05,460.86a8,8,0,0,1-7.24,5.65c-3.12,0-4.94-2.53-4.06-5.65a8,8,0,0,1,7.24-5.65C1658.11,455.21,1659.93,457.74,1659.05,460.86Z" transform="translate(-0.52 -1.96)"/><path class="cls-2" d="M1685.05,460.86a8,8,0,0,1-7.24,5.65c-3.12,0-4.94-2.53-4.06-5.65a8,8,0,0,1,7.24-5.65C1684.11,455.21,1685.93,457.74,1685.05,460.86Z" transform="translate(-0.52 -1.96)"/><path class="cls-2" d="M2030.05,460.86a8,8,0,0,1-7.24,5.65c-3.12,0-4.94-2.53-4.06-5.65a8,8,0,0,1,7.24-5.65C2029.11,455.21,2030.93,457.74,2030.05,460.86Z" transform="translate(-0.52 -1.96)"/><path class="cls-2" d="M2056.05,460.86a8,8,0,0,1-7.24,5.65c-3.12,0-4.94-2.53-4.06-5.65a8,8,0,0,1,7.24-5.65C2055.11,455.21,2056.93,457.74,2056.05,460.86Z" transform="translate(-0.52 -1.96)"/><path class="cls-2" d="M2082.05,460.86a8,8,0,0,1-7.24,5.65c-3.12,0-4.94-2.53-4.06-5.65a8,8,0,0,1,7.24-5.65C2081.11,455.21,2082.93,457.74,2082.05,460.86Z" transform="translate(-0.52 -1.96)"/><path class="cls-7" d="M2124.57,1531.66c-6-6.58-14.92-12.53-23.3-9.5-5.12,1.85-8.52,6.57-12.25,10.54-15,15.9-38.62,21.35-60.28,18.64s-41.77-12.57-60.67-23.48c-4.81-2.78-10.83-5.65-15.57-2.76l89,114,39.27,3.18c13.3,1.08,27.38,2,39.28-4,13.91-7,21.92-22.43,24.59-37.79A82.74,82.74,0,0,0,2124.57,1531.66Z" transform="translate(-0.52 -1.96)"/><path class="cls-7" d="M2080.15,1641.45c3.61-50.3,6.19-104.81-21.8-146.75-37.59-56.35-117.55-68.23-183.37-52.23a305.53,305.53,0,0,0-126.91,65.34c-22.67,19.58-44.69,43.66-74.32,48-56.59,8.29-105.34-59.76-161.08-47-26.68,6.12-45.92,29.89-57.09,54.88s-16.39,52.32-27.36,77.4Z" transform="translate(-0.52 -1.96)"/><path class="cls-7" d="M1340.05,1641.45l1.61-6.62a29.08,29.08,0,0,1,24.54-22l216-28v54.32Z" transform="translate(-0.52 -1.96)"/><path class="cls-3" d="M1506.94,1485.92s-26.32,46.33-26.32,49.93l34.74,2.84Z" transform="translate(-0.52 -1.96)"/><path class="cls-12" d="M1441.69,1602.85l87.37-11.1c-.78.1-77-19.62-77-19.62Z" transform="translate(-0.52 -1.96)"/><path class="cls-3" d="M1342.48,1642l-4.86-1.17,1.61-6.62a31.76,31.76,0,0,1,26.65-23.88l162.86-21.09.64,5-162.86,21.09a26.74,26.74,0,0,0-22.43,20.1Z" transform="translate(-0.52 -1.96)"/><path class="cls-8" d="M1544.39,1641.19l535.76.26.57-12s-114.21-66.55-194.56-26.63C1774.23,1658.46,1544.39,1641.19,1544.39,1641.19Z" transform="translate(-0.52 -1.96)"/><path class="cls-7" d="M1663,939.84H1163.42l103.84-275a64.2,64.2,0,0,1,60-41.52h404.86a34.8,34.8,0,0,1,32.56,47.1Z" transform="translate(-0.52 -1.96)"/><path class="cls-13" d="M1191,920.76l94.09-249.15a45.31,45.31,0,0,1,42.19-29.17h404.86a15.71,15.71,0,0,1,14.7,21.27l-97.07,257Z" transform="translate(-0.52 -1.96)"/><path class="cls-9" d="M970.25,893.22h338a0,0,0,0,1,0,0v44.66a0,0,0,0,1,0,0H983.65a13.41,13.41,0,0,1-13.41-13.41V893.22A0,0,0,0,1,970.25,893.22Z"/><path class="cls-2" d="M1305,893.22h375a0,0,0,0,1,0,0v31.34a13.32,13.32,0,0,1-13.32,13.32H1305a0,0,0,0,1,0,0V893.22A0,0,0,0,1,1305,893.22Z"/><path class="cls-13" d="M1220.46,895.18v7.11a6,6,0,0,1-6,6H1066.24a6,6,0,0,1-6-6v-7.11Z" transform="translate(-0.52 -1.96)"/><polygon class="cls-5" points="1381.89 678.81 1331.49 678.81 1335.01 669.96 1385.41 669.96 1381.89 678.81"/><polygon class="cls-3" points="1447.19 678.81 1396.79 678.81 1400.31 669.96 1450.71 669.96 1447.19 678.81"/><polygon class="cls-2" points="1513.68 703.58 1362.82 703.58 1366.34 694.73 1517.2 694.73 1513.68 703.58"/><polygon class="cls-2" points="1674.42 703.58 1533.6 703.58 1537.12 694.73 1677.94 694.73 1674.42 703.58"/><polygon class="cls-2" points="1364.19 728.34 1313.79 728.34 1317.31 719.49 1367.71 719.49 1364.19 728.34"/><polygon class="cls-2" points="1409.4 728.34 1379.09 728.34 1382.61 719.49 1412.92 719.49 1409.4 728.34"/><polygon class="cls-2" points="1439.73 753.11 1339.1 753.11 1342.62 744.26 1443.25 744.26 1439.73 753.11"/><polygon class="cls-2" points="1618.55 753.11 1548.05 753.11 1551.57 744.26 1622.06 744.26 1618.55 753.11"/><polygon class="cls-3" points="1485.94 753.11 1455.63 753.11 1459.15 744.26 1489.46 744.26 1485.94 753.11"/><polygon class="cls-5" points="1532.15 753.11 1501.84 753.11 1505.36 744.26 1535.67 744.26 1532.15 753.11"/><polygon class="cls-3" points="1326.4 777.87 1296.09 777.87 1299.61 769.02 1329.92 769.02 1326.4 777.87"/><polygon class="cls-5" points="1410.79 777.87 1340.3 777.87 1343.81 769.02 1414.31 769.02 1410.79 777.87"/><polygon class="cls-2" points="1420.02 802.63 1309.35 802.63 1312.86 793.79 1423.54 793.79 1420.02 802.63"/><polygon class="cls-2" points="1482.31 802.63 1431.9 802.63 1435.42 793.79 1485.82 793.79 1482.31 802.63"/><polygon class="cls-2" points="1565.69 802.63 1495.19 802.63 1498.71 793.79 1569.2 793.79 1565.69 802.63"/><polygon class="cls-5" points="1358.93 827.4 1278.4 827.4 1281.91 818.55 1362.45 818.55 1358.93 827.4"/><polygon class="cls-2" points="1611.28 852.16 1269.55 852.16 1273.07 843.32 1614.8 843.32 1611.28 852.16"/><polygon class="cls-5" points="1311.1 876.93 1260.7 876.93 1264.22 868.08 1314.62 868.08 1311.1 876.93"/><rect class="cls-2" x="2247.52" y="723.45" width="137.87" height="214.39"/><rect class="cls-9" x="2385.92" y="725.42" width="42.21" height="214.39" transform="translate(4813.52 1663.26) rotate(180)"/><circle class="cls-14" cx="2316.98" cy="786.43" r="25.89" transform="translate(1024.1 2862.14) rotate(-76.87)"/><circle class="cls-7" cx="2316.98" cy="786.43" r="10.33" transform="translate(1020.89 2860.13) rotate(-76.78)"/><circle class="cls-14" cx="2316.98" cy="876.43" r="42.21" transform="translate(883.92 2895.45) rotate(-75.39)"/><circle class="cls-7" cx="2316.46" cy="874.47" r="16.84"/><path class="cls-2" d="M1158.16,731.26a6.28,6.28,0,1,1-6.27-6.28A6.28,6.28,0,0,1,1158.16,731.26Z" transform="translate(-0.52 -1.96)"/><circle class="cls-3" cx="1157.23" cy="509.74" r="12.74" transform="translate(-22.02 965.62) rotate(-45)"/><circle class="cls-2" cx="1210.57" cy="638.33" r="10.27" transform="translate(319.33 1675.39) rotate(-77.2)"/><path class="cls-5" d="M2454.49,1247.57a74.45,74.45,0,0,1-33.59-29.26c-4.77-7.89-8.26-17-15.49-22.7-13.38-10.61-35.39-6.46-46.61-19.33-9.06-10.39-6.6-27.24-15.24-38-7.62-9.48-21.14-11.11-33.21-12.64-16.28-2.06-33.07-5.49-46.16-15.39s-21.31-27.93-15.31-43.2c25.73,9.93,54.25,0,81-6.49s59.54-7.81,77.21,13.36c4.5,5.38,7.64,11.89,12.7,16.74,14.74,14.12,41.39,10.6,54.21,26.47,9.9,12.26,6.8,30.22,11.34,45.31,3.46,11.5,11.38,21.16,15.64,32.4,5.86,15.49,6.51,40.44,1.16,56C2492.28,1279.75,2472.66,1255.65,2454.49,1247.57Z" transform="translate(-0.52 -1.96)"/><path class="cls-5" d="M2639.62,1269.23c-16.12,32.91-101.66,79.19-102.28,12.48-.14-15.25,12.32-28,14.4-43.07,2.11-15.33-6.77-30.37-5.79-45.82,2-32.07,43.53-49.67,48.12-81.47,1.65-11.37-1.73-23.59,2.87-34.12,9.16-21,41.24-19.71,56.13-37.15,7.63-8.94,9.63-21.66,17.26-30.58,7.34-8.59,18.84-12.47,27.07-20.2,8.71-8.18,13-19.86,18.89-30.26s15-20.58,26.91-21.38c-15.16,39.38,19.24,84,7.39,124.47-7.88,26.92-34.36,44.83-44,71.18-6.41,17.48-4.88,37.42-13.16,54.09-9.71,19.58-31.18,31.11-41.51,50.37C2646.6,1247.71,2644.57,1259.11,2639.62,1269.23Z" transform="translate(-0.52 -1.96)"/><path class="cls-5" d="M2471.05,1321.87c6.08,19.77,23.33,59.85,15.35,80.48-6,15.58-21.14,9.68-30.45-1.72-8.46-10.37-9.95-25.64-22.8-32.54-6.52-3.5-14.75-3.49-20.52-8.12-6.81-5.45-8.11-15.71-14.75-21.37-11.22-9.56-27.85-.49-40.84,6.48-34.77,18.64-78.35,19.86-114.11,3.18,14-18.45,28.17-37.09,46.1-51.75a148,148,0,0,1,87.88-33.07c9.49-.32,19.5.42,27.49,5.55,4.47,2.87,8.06,7,12.51,9.88,11.53,7.53,27.37,6.27,38.36,14.56C2464.08,1300.07,2467.81,1311.33,2471.05,1321.87Z" transform="translate(-0.52 -1.96)"/><path class="cls-5" d="M2583.64,1394.68c6.39-11,16.33-19.67,22.7-30.71,7.23-12.53,10-28.26,21.13-37.48,17-14.1,42.61-5.26,64.42-9,17.36-2.94,32.67-14.15,50.19-15.92,18.91-1.91,37.71,7.9,50.08,22.34s19,33,22.84,51.57c-9-13.15-27.5-14.47-43.42-14.47h-37.33c-3.07,0-6.26,0-9,1.37-5.5,2.69-7.35,9.41-9.41,15.17-6.93,19.39-26.33,36.38-46.51,32.28-7.43-1.51-14.29-5.7-21.86-6h0c-19.51-.8-30.07,20.32-47.66,24.62C2576.94,1434.05,2573.91,1411.49,2583.64,1394.68Z" transform="translate(-0.52 -1.96)"/><path class="cls-14" d="M2370.05,1101.08c28.68,10.22,52.19,30.63,70.83,54.28,20,25.37,35.24,54.7,47.31,84.55a457.63,457.63,0,0,1,26.86,96.94c5.46,33,7.65,66.48,8.09,99.91.46,34.71-1,69.41-2.79,104.06q-.34,6.59-.71,13.17c-.18,3.22,4.82,3.21,5,0,2-35.38,3.66-70.8,3.58-106.25-.07-34-1.84-68-6.71-101.63a467.31,467.31,0,0,0-25-98.66c-11.69-30.87-26.61-61.08-46.11-87.79-18-24.6-40.6-46.7-68.7-59.28q-5.07-2.27-10.29-4.13c-3-1.08-4.35,3.75-1.33,4.83Z" transform="translate(-0.52 -1.96)"/><path class="cls-14" d="M2546.16,1542c-7.06-35.54-8.45-72-5.82-108.06,2.64-36.27,9.27-72.16,18-107.42a1034.46,1034.46,0,0,1,31.93-105.2c11.84-32.46,26.61-63.65,45.34-92.72a431.3,431.3,0,0,1,62-75.77q4.42-4.3,9-8.47c2.37-2.19-1.17-5.72-3.54-3.54a438.61,438.61,0,0,0-64.94,75,451,451,0,0,0-47.6,90.76c-13.51,34.56-24.39,70.34-33.83,106.21-9.33,35.47-16.65,71.54-20.26,108.07-3.58,36.29-3.31,73,2.46,109.07q1.08,6.74,2.41,13.43c.63,3.16,5.45,1.82,4.83-1.33Z" transform="translate(-0.52 -1.96)"/><path class="cls-14" d="M2274.71,1342.6c17.64-20.35,37.75-40.17,62.63-51.36a83.21,83.21,0,0,1,37.56-7.62,79.08,79.08,0,0,1,35.53,10.66c23.46,13.35,39.86,35.65,50.6,60,6.09,13.79,10.49,28.27,14.29,42.84,4,15.18,7.33,30.51,10.87,45.79l22.71,98.24q1.39,6.07,2.81,12.15c.72,3.13,5.54,1.81,4.82-1.33q-11.61-50.17-23.2-100.35c-3.69-15.95-7.25-31.94-11.17-47.84-3.62-14.7-7.7-29.33-13.23-43.44-5.35-13.61-12-26.84-20.76-38.57a120.74,120.74,0,0,0-28.59-27.66,88.45,88.45,0,0,0-35.81-14.58,83.52,83.52,0,0,0-39.36,3.62c-26.37,8.9-48.09,28.23-66.57,48.43q-3.37,3.7-6.67,7.5c-2.09,2.42,1.43,6,3.54,3.54Z" transform="translate(-0.52 -1.96)"/><path class="cls-14" d="M2563.84,1537.21a373.47,373.47,0,0,1,9-56.4,263.78,263.78,0,0,1,18.92-53.47,189.06,189.06,0,0,1,31.15-46,161.37,161.37,0,0,1,104.93-50.74q3.74-.28,7.47-.41c3.21-.1,3.23-5.1,0-5a167.1,167.1,0,0,0-60.18,13.47,164.71,164.71,0,0,0-50.61,33.86,187.37,187.37,0,0,0-33.73,45.72,257.94,257.94,0,0,0-21,54.14,366.62,366.62,0,0,0-10.37,57.8q-.36,3.51-.67,7a2.5,2.5,0,0,0,5,0Z" transform="translate(-0.52 -1.96)"/><polygon class="cls-3" points="2629.16 1641.76 2445.82 1641.76 2425.82 1496.41 2649.16 1496.41 2629.16 1641.76"/><polygon class="cls-12" points="2428.09 1512.88 2642.47 1545.02 2649.16 1496.41 2425.82 1496.41 2428.09 1512.88"/><rect class="cls-3" x="2407.96" y="1465.09" width="259.51" height="40.82"/><rect class="cls-15" x="593.36" y="937.88" width="1951.27" height="33.01"/><polygon class="cls-2" points="2289.82 1641.76 2263.87 1641.76 2083.87 970.89 2149.82 970.89 2289.82 1641.76"/><polygon class="cls-8" points="2149.82 970.89 2160.61 1021.67 2096.5 1017.98 2083.87 970.89 2149.82 970.89"/><polygon class="cls-2" points="703.87 1641.76 729.83 1641.76 909.83 970.89 843.87 970.89 703.87 1641.76"/><polygon class="cls-8" points="843.87 970.89 833.08 1021.67 897.19 1017.98 909.83 970.89 843.87 970.89"/><path class="cls-16" d="M677.5,1460.06,574.31,1644H912.88v-30.52l-30-11.93a80.56,80.56,0,0,1-39.82-115.41l15.19-26.06Z" transform="translate(-0.52 -1.96)"/><polygon class="cls-8" points="857.74 1458.1 841.19 1486.6 671.75 1467.41 676.98 1458.1 857.74 1458.1"/><path class="cls-14" d="M836.47,1500.5H654.81L574.31,1644H912.88v-30.52l-30-11.93A80.59,80.59,0,0,1,836.47,1500.5Z" transform="translate(-0.52 -1.96)"/><polygon class="cls-2" points="573.79 1642.02 912.36 1642.02 912.36 1614.42 589.27 1614.42 573.79 1642.02"/><circle class="cls-2" cx="676.39" cy="1574.15" r="29.65" transform="translate(-915.51 937.38) rotate(-45)"/><path class="cls-8" d="M862.4,1589.67s-6-1.93-20.77-25l-89,81.55H890Z" transform="translate(-0.52 -1.96)"/><path class="cls-16" d="M935.12,1460.06,831.93,1644H1170.5v-30.52l-30-11.93a80.55,80.55,0,0,1-39.82-115.41l15.19-26.06Z" transform="translate(-0.52 -1.96)"/><polygon class="cls-8" points="1115.36 1458.1 1098.81 1486.6 929.37 1467.41 934.6 1458.1 1115.36 1458.1"/><path class="cls-14" d="M1094.09,1500.5H912.43L831.93,1644H1170.5v-30.52l-30-11.93A80.58,80.58,0,0,1,1094.09,1500.5Z" transform="translate(-0.52 -1.96)"/><polygon class="cls-2" points="831.41 1642.02 1169.98 1642.02 1169.98 1614.42 846.9 1614.42 831.41 1642.02"/><circle class="cls-2" cx="934.01" cy="1574.15" r="29.65" transform="translate(-840.05 1119.54) rotate(-45)"/><path class="cls-16" d="M910.11,456.6s-18.68,92.75-12.67,134.84S859,632.34,859,632.34s-86.6-1.2-49.31-72.17c0,0,24.07-59.07,22.57-103.57Z" transform="translate(-0.52 -1.96)"/><path class="cls-3" d="M919.08,411.42a1.88,1.88,0,0,1,3.15-1.25s9.6,14.11,22,29.86c2.13,2.7.56,6.57-2.87,6.31l-14-1.08a9.07,9.07,0,0,1-8.34-9.6Z" transform="translate(-0.52 -1.96)"/><path class="cls-16" d="M832.16,472.13s57.65,38.68,83.68,21C934.35,480.5,930,428.2,925.92,399c-2-14.32-11-27-24.48-34.38-17.7-9.65-45.85-16-54,10.94C833.81,420.71,832.16,472.13,832.16,472.13Z" transform="translate(-0.52 -1.96)"/><path class="cls-8" d="M907.35,397.63a23.79,23.79,0,0,0-7.44,2.88c-5.28,3.35-7.44,12.39-8.18,18.1-1.39,10.79-2,23.42,10.41,28.25,6,2.31,12.41,2.35,18.7,2.14,4.89-.16,12.54-2,17,.38a8.35,8.35,0,0,1,3.91,5.87c1.84,9.43.33,22.89-.28,32.35-.45,7,.32,14.95-4,21-5.2,7.4-15.35,9-24.36,9.85-15.86,1.59-29-3.06-42.87-10.91-30-16.95-45.12-54.9-47-88-.84-14.76-1.31-29.74,1.73-44.3,1.34-6.36,3.51-12.88,8.23-17.34s12.62-6.13,17.8-2.19c10.07-13.91,26-22.55,42.28-27.92,11.13-3.67,23-6,34.57-3.88s22.57,9.58,26.5,20.63c4.23,11.86-.62,25.56-9.38,34.61-7.42,7.67-17.21,12.49-27.19,16C914.54,396.31,910.87,396.8,907.35,397.63Z" transform="translate(-0.52 -1.96)"/><path class="cls-8" d="M913.87,410.75c.33,2.74,2,4.8,3.72,4.59s2.85-2.6,2.52-5.34-2-4.8-3.72-4.59S913.54,408,913.87,410.75Z" transform="translate(-0.52 -1.96)"/><path class="cls-16" d="M882,407s-10.64-19.1-19.78-3.58-15.39,33.08-4.61,39.64,24.53-.85,24.53-.85Z" transform="translate(-0.52 -1.96)"/><polygon class="cls-17" points="653.56 1458.1 836.12 1128.52 1058.2 1128.52 867.96 1458.1 653.56 1458.1"/><polygon class="cls-8" points="836.12 1128.52 1058.2 1128.52 927.88 1354.28 797.57 1223.4 836.12 1128.52"/><path class="cls-15" d="M869.92,1462.56H649.84L835.17,1128h227.88Zm-211.6-5H867L1054.39,1133H838.12Z" transform="translate(-0.52 -1.96)"/><path class="cls-17" d="M836.47,957l382.65-4.73c96.6-1.19,156.51,104.68,105.74,186.87l-198.25,321H910.8l184.64-328.41-336,3.14a105.38,105.38,0,0,1-105.95-114.85l5.4-59.89Z" transform="translate(-0.52 -1.96)"/><path class="cls-14" d="M970.7,954.62,933.58,713.4,894.43,553.68l-23.2-2.95A153.38,153.38,0,0,0,700.1,680.49L658.85,960.05Z" transform="translate(-0.52 -1.96)"/><rect class="cls-15" x="1049.65" y="1128.78" width="108.52" height="5" transform="translate(-17.19 14.54) rotate(-0.85)"/><path class="cls-16" d="M826.42,688.74,937.86,859.81a208.71,208.71,0,0,0,214.26,91.05l175.07-33.64,88.09,2.82-26.89-33.73-24.55-60.71L1122.22,811,963.37,589.2Z" transform="translate(-0.52 -1.96)"/><circle class="cls-14" cx="894.43" cy="638.33" r="84.65" transform="translate(-189.92 817.46) rotate(-45)"/><path class="cls-16" d="M1342.27,839.44a147.64,147.64,0,0,1,26.82-3.88,168.94,168.94,0,0,1,53.32,5.87c5.89,1.61,40.32,13.15,31.17,24.52-4.19,5.19-19.43,2.52-25.12,2.28-10.92-.47-21.85-1.39-32.79-.84-22.3,1.11-44.64,11.49-66.48,8.05-3.07-.48-6.31-1.38-8.19-3.88a14.84,14.84,0,0,1-2.11-5.35c-1.9-7.59-4-16.31,4-21C1328.88,841.8,1335.79,841,1342.27,839.44Z" transform="translate(-0.52 -1.96)"/><path class="cls-16" d="M1361.65,868.19a148.52,148.52,0,0,1,26.82-3.88,169.24,169.24,0,0,1,53.32,5.88c5.89,1.6,40.32,13.14,31.17,24.51-4.19,5.19-19.43,2.52-25.12,2.28-10.92-.46-21.85-1.38-32.79-.84-22.3,1.12-44.64,11.5-66.48,8.06-3.07-.49-6.31-1.38-8.19-3.89a14.84,14.84,0,0,1-2.11-5.35c-1.9-7.59-4-16.3,4-20.94C1348.26,870.55,1355.17,869.75,1361.65,868.19Z" transform="translate(-0.52 -1.96)"/><path class="cls-16" d="M1374.13,885.93a133.25,133.25,0,0,1,24.16,1.55,151.41,151.41,0,0,1,45.5,14.95c4.86,2.49,32.82,18.92,22.73,27.17-4.62,3.76-17.45-1.38-22.37-2.63-9.46-2.42-18.84-5.24-28.5-6.78-19.69-3.13-41.13,1.82-59.58-5.2-2.59-1-5.26-2.37-6.44-4.91a13.3,13.3,0,0,1-.86-5.06c-.27-7-.48-15,7.37-17.56C1362,885.53,1368.18,886.11,1374.13,885.93Z" transform="translate(-0.52 -1.96)"/><path class="cls-16" d="M1348.66,844.8s25.78-54.85,54.44-41.94,35.36,49.67,35.36,49.67S1431,864.3,1406.66,841h0a10.46,10.46,0,0,0-11.83,5.19l-9.72,18.14Z" transform="translate(-0.52 -1.96)"/><path class="cls-8" d="M1451.79,859.53c-19.44-18.92-65.32-21.45-65.78-21.48l.25-5c2,.1,48.22,2.64,69,22.89Z" transform="translate(-0.52 -1.96)"/><path class="cls-8" d="M1463.88,882.16c-26.6-17.09-73.75-15.42-74.22-15.4l-.2-5c2-.08,49.21-1.74,77.12,16.2Z" transform="translate(-0.52 -1.96)"/><path class="cls-8" d="M1461.25,917.67c-30.35-24.58-71.51-28.73-71.92-28.77l.47-5c1.74.16,43,4.3,74.6,29.85Z" transform="translate(-0.52 -1.96)"/><path class="cls-8" d="M1433.79,847.53c-10.5-27.7-22.75-42.46-36.41-43.86-18.9-1.94-34.88,22.8-35,23.05l-.79,1.25-27-1.64.3-5L1359,822.8c3.75-5.42,19.39-26.1,38.93-24.1,15.7,1.6,29.36,17.43,40.59,47.06Z" transform="translate(-0.52 -1.96)"/><polygon class="cls-8" points="1392.01 834.14 1400.36 826.82 1433.17 843.66 1392.01 834.14"/><path class="cls-5" d="M1018.19,1461.32l-4.32-2.51,217-374.56a32,32,0,0,0-28.29-48l-548.49,10.69-.1-5,548.49-10.69a37,37,0,0,1,32.71,55.52Z" transform="translate(-0.52 -1.96)"/><path class="cls-5" d="M1048.18,1461.34l-4.3-2.55,214.25-362.51a59.95,59.95,0,0,0-52.68-90.44l-550.93,9.86-.09-5,550.93-9.86a65,65,0,0,1,57.07,98Z" transform="translate(-0.52 -1.96)"/><path class="cls-8" d="M1384.05,907l-4.66-1.82c16.71-42.72,4-73.93,3.9-74.24l4.61-1.93C1388.46,830.35,1401.48,862.42,1384.05,907Z" transform="translate(-0.52 -1.96)"/><polygon class="cls-8" points="871.07 757.26 761.7 952.15 969.96 951.22 960.97 892.77 871.07 757.26"/><rect class="cls-8" x="869.09" y="420.18" width="5" height="9.97" transform="translate(226.04 1147.34) rotate(-74.31)"/><polygon class="cls-14" points="803.57 655.36 916.17 825.35 1052.38 712.24 959.22 583.94 803.57 655.36"/><polygon class="cls-5" points="1042.96 699.27 907.28 811.94 916.17 825.35 1052.38 712.24 1042.96 699.27"/><polygon class="cls-5" points="1018.6 666.26 882.92 778.92 891.81 792.34 1028.02 679.23 1018.6 666.26"/><path class="cls-14" d="M866.35,550.19l-109.06-2.85c-56.88-1.49-101,49.25-91.67,105.39l20.46,122.79h0A152.52,152.52,0,0,0,832.44,665.89Z" transform="translate(-0.52 -1.96)"/><path class="cls-2" d="M684.61,781.92,663.16,653.14a93,93,0,0,1,94.2-108.3l109.06,2.85L889,548.81a102.09,102.09,0,0,1,78,42.33l78.39,108.37-4,2.94L963,594.07a97.13,97.13,0,0,0-74.23-40.27l-22.55-1.12-109-2.84a88,88,0,0,0-89.14,102.48l19.46,116.8,17.88-25.27,4.09,2.89Z" transform="translate(-0.52 -1.96)"/><path class="cls-2" d="M1110.1,957.26A204.48,204.48,0,0,1,939.85,866L845.5,724.37l4.17-2.77L944,863.22a199.51,199.51,0,0,0,202.82,85.64l78.88-14.69.92,4.92-78.88,14.68A204.9,204.9,0,0,1,1110.1,957.26Z" transform="translate(-0.52 -1.96)"/><rect class="cls-8" x="1116.37" y="785.74" width="5" height="50.18" transform="translate(243.24 1878.22) rotate(-86.64)"/><path class="cls-15" d="M1128,1462.56H906.53l184.62-328.37-331.72,3.1A107.9,107.9,0,0,1,651,1019.72l5.61-62.13,179.87-3.13,382.65-4.73c46.29-.56,87.54,23.14,110.34,63.43s21.88,87.86-2.44,127.25Zm-212.93-5h210.14l197.52-319.78c23.36-37.81,24.23-83.47,2.35-122.15-21.63-38.23-60.56-60.91-104.36-60.91h-1.57L836.5,959.46l-175.36,3-5.2,57.66a102.89,102.89,0,0,0,103.44,112.12l340.36-3.18Z" transform="translate(-0.52 -1.96)"/><path class="cls-8" d="M941.07,1647h-5a60.09,60.09,0,0,0-60-60H562.6a60.09,60.09,0,0,0-60,60h-5a65.1,65.1,0,0,1,65-65H876.06A65.09,65.09,0,0,1,941.07,1647Z" transform="translate(-0.52 -1.96)"/><rect class="cls-8" x="713.71" y="1275.62" width="5" height="308.84" transform="translate(-7.84 1.73) rotate(-0.29)"/><rect class="cls-2" x="635.39" y="1204.18" width="162.19" height="69.48" rx="20.89"/><polygon class="cls-8" points="797.57 1223.4 797.57 1254.44 635.39 1226.71 635.39 1223.4 797.57 1223.4"/><rect class="cls-3" x="446.16" y="1128.26" width="551.04" height="95.42" rx="47.71"/><path class="cls-3" d="M607.83,602.86H486.93c-63.36,0-111,57.72-99.06,119.94l80.73,419.6H795L706.89,684.68A100.89,100.89,0,0,0,607.83,602.86Z" transform="translate(-0.52 -1.96)"/><path class="cls-18" d="M706.89,684.68a100.89,100.89,0,0,0-99.06-81.82h-58a100.87,100.87,0,0,1,99,81.82L737,1142.4h58Z" transform="translate(-0.52 -1.96)"/><path class="cls-2" d="M635.91,1144.9H466.54L431.06,960.52,385.67,722.17a102.61,102.61,0,0,1,100.8-121.81h63.4a103.52,103.52,0,0,1,101.51,83.85L724.66,1058l-4.91,1-73.28-373.8a98.51,98.51,0,0,0-96.6-79.8h-63.4a97.62,97.62,0,0,0-95.89,115.88L436,959.58l34.7,180.32H635.91Z" transform="translate(-0.52 -1.96)"/><path class="cls-13" d="M1502.4,321.41H1383.69c-20.15,0-42.54,16.33-50,36.48l-11.46,30.89h191.66l11.47-30.89C1532.81,337.74,1522.54,321.41,1502.4,321.41Z" transform="translate(-0.52 -1.96)"/><path class="cls-2" d="M1405.29,585.57H1286.58c-10.15,0-18.44-3.88-23.34-10.93-5.25-7.55-6-18.09-2-28.91l70-188.71c7.8-21,31.29-38.11,52.36-38.11H1502.4c10.14,0,18.43,3.88,23.33,10.93,5.26,7.56,6,18.1,2,28.92l-70,188.71C1449.85,568.48,1426.36,585.57,1405.29,585.57Zm-21.6-261.66c-19.16,0-40.54,15.63-47.67,34.85l-70,188.71c-3.49,9.4-3,18,1.37,24.32,3.94,5.66,10.77,8.78,19.23,8.78h118.71c19.15,0,40.54-15.63,47.67-34.84L1523,357c3.49-9.4,3-18-1.36-24.32-3.94-5.67-10.77-8.79-19.23-8.79Z" transform="translate(-0.52 -1.96)"/><path class="cls-3" d="M1443.87,472c.91-2.46-.34-4.45-2.81-4.45h-9.52a2.37,2.37,0,0,1-2.56-2.49c0-.89,0-1.76-.12-2.63a5.07,5.07,0,0,1,2.27-4.23l9.23-6.73c2.39-1.75,3.43-4.57,2.34-6.31l-6.91-11c-1.09-1.74-3.92-1.74-6.3,0l-9.3,6.78a4.36,4.36,0,0,1-4.35.78c-.82-.41-1.71-.83-2.48-1.18-1.21-.55-1.62-1.91-1.06-3.43l3.57-9.61c.91-2.47-.34-4.46-2.8-4.46h-15.52a7.1,7.1,0,0,0-6.11,4.46l-3.54,9.52a6.19,6.19,0,0,1-3.78,3.48c-1.06.35-2.12.74-3.18,1.15-1.68.66-3.28.43-4-.68l-4.27-6.72c-1.09-1.74-3.92-1.73-6.31,0l-15,11c-2.38,1.74-3.42,4.57-2.32,6.3l4.29,6.77c.68,1.07.39,2.67-.71,4.06-.77,1-1.58,2-2.26,2.92a5.74,5.74,0,0,1-4.29,2.33l-9.63,0a7.1,7.1,0,0,0-6.1,4.47l-5.72,15.51c-.91,2.46.35,4.46,2.82,4.45l9.53,0a2.4,2.4,0,0,1,2.57,2.49c0,.89,0,1.77.12,2.63a5.06,5.06,0,0,1-2.26,4.23l-9.23,6.75c-2.38,1.74-3.43,4.57-2.33,6.31l6.93,10.94c1.1,1.74,3.93,1.73,6.31,0l9.3-6.8a4.35,4.35,0,0,1,4.35-.78c.81.41,1.71.82,2.48,1.17,1.21.55,1.62,1.91,1.06,3.43l-3.55,9.61c-.91,2.47.35,4.46,2.82,4.45l15.52,0a7.11,7.11,0,0,0,6.11-4.47l3.51-9.52a6.25,6.25,0,0,1,3.79-3.49c1-.33,2-.7,3-1.09,1.68-.66,3.28-.42,4,.69l4.24,6.73c1.1,1.74,3.93,1.73,6.31,0l15-11c2.38-1.75,3.42-4.57,2.33-6.31l-4.28-6.78c-.67-1.06-.38-2.67.73-4.05,1.85-2.33,3.89-5.09,4-5.25H1432a7.12,7.12,0,0,0,6.11-4.46Zm-75.16,28.3a13.21,13.21,0,0,1-2.82-1.7,12.82,12.82,0,0,1-3.8-5,15.17,15.17,0,0,1-.95-3.11,17.42,17.42,0,0,1-.28-3.42,20.1,20.1,0,0,1,.38-3.64,25.83,25.83,0,0,1,2.86-7.6c7.67-13.72,24.75-21.46,35.7-16.54a12.82,12.82,0,0,1,5,4,11.44,11.44,0,0,1,.87,1.31,15.93,15.93,0,0,1,1.85,9.74,24.74,24.74,0,0,1-3.14,9.44C1396.74,497.5,1379.66,505.24,1368.71,500.32Z" transform="translate(-0.52 -1.96)"/><path class="cls-5" d="M1409.86,358.1c-1.41,3.8-5.64,6.89-9.45,6.89s-5.75-3.09-4.34-6.89,5.65-6.9,9.46-6.9S1411.27,354.29,1409.86,358.1Z" transform="translate(-0.52 -1.96)"/><path class="cls-5" d="M1436.23,358.1c-1.41,3.8-5.64,6.89-9.45,6.89s-5.75-3.09-4.33-6.89,5.64-6.9,9.45-6.9S1437.65,354.29,1436.23,358.1Z" transform="translate(-0.52 -1.96)"/><path class="cls-5" d="M1462.61,358.1c-1.42,3.8-5.65,6.89-9.46,6.89s-5.74-3.09-4.33-6.89,5.64-6.9,9.45-6.9S1464,354.29,1462.61,358.1Z" transform="translate(-0.52 -1.96)"/><path class="cls-5" d="M1292.19,352.32l-10.31-5.06c-3.69-1.82-5-6.07-3.3-10.78h0c3.76-10.44-1.7-19-12.14-19h-173c-10.44,0-22.06,8.54-25.81,19l-16.84,46.74c-3.76,10.44,1.7,19,12.14,19h173c10.43,0,22-8.54,25.81-19l1.24-3.44a18.92,18.92,0,0,1,10-10.34l15.86-7C1294.23,360.67,1296.52,353.83,1292.19,352.32Z" transform="translate(-0.52 -1.96)"/><path class="cls-2" d="M1125.71,378.85a2.52,2.52,0,0,1-2.11-1.15l-11.82-18.48,24.33-17.88a2.5,2.5,0,1,1,3,4l-20.56,15.11,9.3,14.52a2.51,2.51,0,0,1-.76,3.46A2.57,2.57,0,0,1,1125.71,378.85Z" transform="translate(-0.52 -1.96)"/><path class="cls-2" d="M1185.17,378.85a2.5,2.5,0,0,1-1.49-4.51l20.56-15.12-9.3-14.52a2.5,2.5,0,0,1,4.22-2.7L1211,360.48l-24.33,17.88A2.5,2.5,0,0,1,1185.17,378.85Z" transform="translate(-0.52 -1.96)"/><path class="cls-2" d="M1162.83,391.78a2.49,2.49,0,0,1-2.49-2.41l-2.12-58.86a2.5,2.5,0,1,1,5-.18l2.12,58.86a2.49,2.49,0,0,1-2.4,2.59Z" transform="translate(-0.52 -1.96)"/><path class="cls-2" d="M1079.51,591l-4.6,4.6-4.61-4.6a5.17,5.17,0,0,0-7.31,7.31l4.61,4.6-4.61,4.61a5.17,5.17,0,0,0,7.31,7.31l4.61-4.6,4.6,4.6a5.17,5.17,0,0,0,7.31-7.31l-4.6-4.61,4.6-4.6a5.17,5.17,0,0,0-7.31-7.31Z" transform="translate(-0.52 -1.96)"/><path class="cls-3" d="M2398.62,680.23H2300.8c-15.67,0-23.65-12.7-17.83-28.37L2319.35,554c5.83-15.67,23.26-28.38,38.93-28.38h97.82c15.68,0,23.66,12.71,17.83,28.38l-36.38,97.82C2431.72,667.53,2414.29,680.23,2398.62,680.23Z" transform="translate(-0.52 -1.96)"/><path class="cls-2" d="M2391.65,659.76a21.28,21.28,0,0,1-2.35-.1l.59-5c.92.1,22.53,2.34,28.55-21a42.36,42.36,0,0,0,.95-5.12c.67-5.54,4-23.71,17.93-25.05a2.58,2.58,0,0,0,1.76-1.23c-3.71-.54-5.43-2.53-6.22-4.14-3-6.1,2.59-16.7,6.18-22.47,1.15-1.86,2.1-3.56,2.91-5.21,2.34-4.82,4.56-11.39,1.82-15.29-2.93-4.16-10.78-4.29-13.56-4l-.55-5c.53-.06,13-1.35,18.19,6.07,3.33,4.73,2.86,11.58-1.41,20.36a58.61,58.61,0,0,1-3.16,5.67c-4.87,7.84-7.25,14.92-5.93,17.63.16.33.6,1.21,2.75,1.43a4.55,4.55,0,0,1,3.47,2.09,4.93,4.93,0,0,1,.31,4.34,7.46,7.46,0,0,1-6.08,4.68c-10.52,1-13.05,17.41-13.45,20.68a45.11,45.11,0,0,1-1.07,5.77C2417.41,657.7,2398.36,659.76,2391.65,659.76Z" transform="translate(-0.52 -1.96)"/><path class="cls-2" d="M2326.49,659.79c-4.06,0-11.72-.78-15.55-6.2-3.33-4.73-2.86-11.58,1.41-20.36a62.13,62.13,0,0,1,3.16-5.67c4.87-7.83,7.25-14.92,5.93-17.62-.16-.33-.59-1.21-2.75-1.44a4.56,4.56,0,0,1-3.47-2.08,4.93,4.93,0,0,1-.31-4.34,7.45,7.45,0,0,1,6.08-4.69c10.53-1,13.05-17.4,13.45-20.68a45,45,0,0,1,1.07-5.76c7.12-27.64,33.71-24.75,34-24.72l-.6,5c-.91-.11-22.52-2.34-28.53,21a40.64,40.64,0,0,0-1,5.13c-.67,5.53-4,23.7-17.93,25a2.57,2.57,0,0,0-1.76,1.22c3.72.55,5.43,2.53,6.22,4.15,3,6.1-2.59,16.69-6.18,22.46-1.15,1.86-2.1,3.57-2.91,5.22-2.34,4.82-4.56,11.38-1.82,15.28,2.93,4.16,10.79,4.29,13.56,4l.55,5C2329,659.68,2328,659.79,2326.49,659.79Z" transform="translate(-0.52 -1.96)"/><rect class="cls-2" x="2342.42" y="598.37" width="6.13" height="5"/><rect class="cls-2" x="2364.12" y="598.37" width="6.13" height="5"/><rect class="cls-2" x="2385.82" y="598.37" width="6.13" height="5"/><rect class="cls-2" x="2407.52" y="598.37" width="6.13" height="5"/><path class="cls-5" d="M2637.25,483H2368.38a20.24,20.24,0,0,1-18.67-28.05l19.17-45.88a43.48,43.48,0,0,1,40.22-26.78H2678a20.23,20.23,0,0,1,18.67,28.05l-19.17,45.88A43.48,43.48,0,0,1,2637.25,483ZM2409.1,387.27A38.48,38.48,0,0,0,2373.5,411l-19.18,45.88A15.25,15.25,0,0,0,2368.38,478h268.87a38.51,38.51,0,0,0,35.61-23.71L2692,408.39A15.24,15.24,0,0,0,2678,387.27Z" transform="translate(-0.52 -1.96)"/><path class="cls-2" d="M2404.7,444.13a16.44,16.44,0,0,1-10.2-3.37c-8.26-6.4-8.61-19.8-.8-29.87a25.87,25.87,0,0,1,14.12-9.47c5.6-1.36,10.93-.36,15,2.81s6.38,8.08,6.46,13.83a25.92,25.92,0,0,1-5.66,16C2418.61,440.58,2411.4,444.13,2404.7,444.13Zm7.9-38.3a15.23,15.23,0,0,0-3.6.45,20.85,20.85,0,0,0-11.35,7.67c-6.12,7.89-6.16,18.15-.09,22.86s16,2.12,22.12-5.77h0a20.89,20.89,0,0,0,4.61-12.91,12.45,12.45,0,0,0-4.52-9.95A11.54,11.54,0,0,0,2412.6,405.83Z" transform="translate(-0.52 -1.96)"/><rect class="cls-2" x="2430.61" y="439.5" width="5" height="19.64" transform="translate(331.39 1753.84) rotate(-42.34)"/><rect class="cls-2" x="314.23" y="1639.26" width="2526.08" height="5"/><rect class="cls-2" x="2868.78" y="1639.26" width="71.53" height="5"/><rect class="cls-2" x="259.66" y="1639.26" width="34.58" height="5"/><path class="cls-3" d="M2193.29,939.35H1963.47a15.31,15.31,0,0,1-15.31-15.3h0a15.31,15.31,0,0,1,15.31-15.3h229.82a15.3,15.3,0,0,1,15.3,15.3h0A15.3,15.3,0,0,1,2193.29,939.35Z" transform="translate(-0.52 -1.96)"/><path class="cls-5" d="M2178.9,908.58H1949.08a15.3,15.3,0,0,1-15.3-15.31h0a15.3,15.3,0,0,1,15.3-15.3H2178.9a15.3,15.3,0,0,1,15.31,15.3h0A15.3,15.3,0,0,1,2178.9,908.58Z" transform="translate(-0.52 -1.96)"/></g></svg>